<?xml version="1.0" standalone="no"?>
<!DOCTYPE svg PUBLIC "-//W3C//DTD SVG 20010904//EN"
 "http://www.w3.org/TR/2001/REC-SVG-20010904/DTD/svg10.dtd">
<svg version="1.0" xmlns="http://www.w3.org/2000/svg"
 width="399.000000pt" height="399.000000pt" viewBox="0 0 399.000000 399.000000"
 preserveAspectRatio="xMidYMid meet">

<g transform="translate(0.000000,399.000000) scale(0.100000,-0.100000)"
fill="#000000" stroke="none">
<path d="M1140 1893 c-116 -40 -181 -124 -199 -254 -10 -74 -5 -94 43 -186 65
-122 145 -219 279 -335 68 -59 118 -91 220 -142 145 -73 235 -99 389 -116 257
-29 542 44 759 192 84 58 199 168 262 250 91 119 220 405 204 451 -2 7 -7 -3
-11 -20 -4 -18 -12 -33 -18 -33 -6 0 -8 -6 -5 -14 3 -7 -3 -27 -13 -44 -10
-16 -17 -33 -14 -36 2 -3 -2 -2 -8 4 -17 14 -31 12 -21 -2 4 -7 9 -24 11 -38
3 -24 3 -24 -12 -5 -14 20 -15 19 -25 -8 -6 -16 -11 -34 -11 -40 0 -7 -9 -20
-20 -30 -21 -18 -27 -53 -10 -59 7 -2 5 -11 -4 -23 -14 -19 -15 -19 -9 5 l6
25 -22 -22 c-11 -12 -21 -30 -21 -39 0 -9 -9 -18 -20 -21 -11 -3 -17 -9 -14
-14 3 -5 10 -7 15 -4 5 3 6 -1 3 -9 -9 -22 -19 -20 -32 7 -10 19 -10 18 -5
-10 3 -21 1 -33 -6 -33 -6 0 -11 8 -11 18 0 9 -4 23 -9 31 -5 8 -8 -2 -6 -29
2 -34 -2 -44 -22 -57 -13 -9 -27 -13 -31 -9 -3 4 0 11 8 16 13 8 12 10 -2 10
-9 0 -19 -6 -21 -12 -4 -10 -8 -9 -16 2 -7 9 -11 10 -11 3 0 -6 5 -15 10 -18
6 -3 10 -12 10 -18 0 -9 -2 -9 -8 0 -5 9 -17 10 -37 4 -26 -8 -27 -9 -7 -10
30 -1 18 -21 -13 -21 -13 0 -31 -8 -41 -17 -12 -13 -31 -17 -63 -16 -25 1 -39
-2 -32 -6 10 -6 9 -10 -4 -15 -29 -11 -48 -7 -41 9 6 17 -2 19 -24 5 -13 -9
-13 -10 0 -11 8 -1 -3 -5 -25 -8 -46 -8 -72 0 -35 10 23 6 22 7 -8 8 -23 1
-31 -3 -26 -10 5 -9 -7 -10 -46 -5 -30 4 -59 10 -64 14 -6 3 -15 7 -21 7 -26
1 -75 17 -75 24 0 4 -19 14 -42 21 -24 7 -55 21 -70 31 -14 11 -31 19 -36 19
-6 0 -12 3 -14 8 -1 4 -37 33 -79 64 -87 66 -161 142 -275 283 -132 163 -198
219 -307 260 -64 24 -156 32 -197 18z m1850 -370 c-11 -17 -11 -17 -6 0 3 10
6 24 7 30 0 9 2 9 5 0 3 -7 0 -20 -6 -30z m-20 -64 c0 -6 -4 -7 -10 -4 -5 3
-10 11 -10 16 0 6 5 7 10 4 6 -3 10 -11 10 -16z"/>
<path d="M2956 1553 c-6 -14 -5 -15 5 -6 7 7 10 15 7 18 -3 3 -9 -2 -12 -12z"/>
<path d="M2758 1493 c6 -2 18 -2 25 0 6 3 1 5 -13 5 -14 0 -19 -2 -12 -5z"/>
<path d="M2648 1463 c7 -3 16 -2 19 1 4 3 -2 6 -13 5 -11 0 -14 -3 -6 -6z"/>
<path d="M2743 1463 c9 -2 25 -2 35 0 9 3 1 5 -18 5 -19 0 -27 -2 -17 -5z"/>
<path d="M2758 1443 c7 -3 16 -2 19 1 4 3 -2 6 -13 5 -11 0 -14 -3 -6 -6z"/>
<path d="M2480 1280 c0 -5 5 -10 11 -10 5 0 7 5 4 10 -3 6 -8 10 -11 10 -2 0
-4 -4 -4 -10z"/>
</g>
</svg>
